<svg width="16" height="16" viewBox="0 0 16 16" fill="none" xmlns="http://www.w3.org/2000/svg">
<path d="M15.6633 4.13665C15.5706 3.8045 15.3938 3.50187 15.15 3.25802C14.9061 3.01417 14.6035 2.83735 14.2713 2.74465C13.0247 2.41065 8.00732 2.41065 8.00732 2.41065C8.00732 2.41065 3.00265 2.40399 1.74332 2.74465C1.41116 2.83735 1.10853 3.01417 0.864684 3.25802C0.620837 3.50187 0.444018 3.8045 0.351318 4.13665C0.114998 5.41299 -0.00150848 6.70863 0.00331782 8.00665C-0.00059609 9.29978 0.115907 10.5905 0.351318 11.862C0.444018 12.1941 0.620837 12.4968 0.864684 12.7406C1.10853 12.9845 1.41116 13.1613 1.74332 13.254C2.98865 13.5887 8.00732 13.5887 8.00732 13.5887C8.00732 13.5887 13.0113 13.5887 14.2713 13.254C14.6035 13.1613 14.9061 12.9845 15.15 12.7406C15.3938 12.4968 15.5706 12.1941 15.6633 11.862C15.8938 10.59 16.0054 9.29932 15.9967 8.00665C16.0063 6.70909 15.8947 5.41346 15.6633 4.13665ZM6.40598 10.4007V5.60532L10.582 8.00665L6.40598 10.4007Z" fill="#BDBDBD"/>
</svg>
